<svg xmlns="http://www.w3.org/2000/svg" version="1.1" xmlns:xlink="http://www.w3.org/1999/xlink" xmlns:svgjs="http://svgjs.dev/svgjs" width="1500" height="670" viewBox="0 0 1500 670"><g transform="matrix(1,0,0,1,-0.9090909090909918,-0.8013797213708358)"><svg viewBox="0 0 396 177" data-background-color="#ffffff" preserveAspectRatio="xMidYMid meet" height="670" width="1500" xmlns="http://www.w3.org/2000/svg" xmlns:xlink="http://www.w3.org/1999/xlink"><g id="tight-bounds" transform="matrix(1,0,0,1,0.2400000000000091,0.21170777713825828)"><svg viewBox="0 0 395.52 176.57658444572348" height="176.57658444572348" width="395.52"><g><svg viewBox="0 0 395.52 176.57658444572348" height="176.57658444572348" width="395.52"><g transform="matrix(1,0,0,1,0,130.85357717005655)"><svg viewBox="0 0 395.52 45.72300727566693" height="45.72300727566693" width="395.52"><g id="textblocktransform"><svg viewBox="0 0 395.52 45.72300727566693" height="45.72300727566693" width="395.52" id="textblock"><g><svg viewBox="0 0 395.52 45.72300727566693" height="45.72300727566693" width="395.52"><g transform="matrix(1,0,0,1,0,0)"><svg width="395.52" viewBox="2.5 -35.35 309.22 35.75" height="45.72300727566693" data-palette-color="#0074d9"><path d="M11.25-13.05L10.2 0 2.5 0 5.4-33.7 13.85-33.7 18.55-21.5Q19.75-18.45 20.6-15.9 21.45-13.35 21.7-12.3L21.7-12.3 21.95-11.3Q22.75-14.6 25.45-21.5L25.45-21.5 30.2-33.7 38.65-33.7 42.15 0 34.45 0 33.2-13.05 32.55-22.9Q31.25-19.15 28.95-13.05L28.95-13.05 24.2-0.35 19.65-0.35 14.95-13.05Q13.8-16.15 13-18.6 12.2-21.05 11.95-22L11.95-22 11.7-22.9Q11.7-19.35 11.25-13.05L11.25-13.05ZM71.2-25.35L61.75 0 54.25 0 44.9-25.35 52.55-25.35 55.85-14.55Q56.6-12.05 57.15-9.83 57.7-7.6 57.85-6.6L57.85-6.6 58.05-5.65Q58.5-8.9 60.3-14.55L60.3-14.55 63.7-25.35 71.2-25.35ZM97.45-25.35L97.45 0 90.15 0 90.15-4.05Q88.15 0.2 82.45 0.2L82.45 0.2Q78.55 0.2 76.37-1.98 74.2-4.15 74.2-8.4L74.2-8.4 74.2-25.35 81.5-25.35 81.5-10.05Q81.5-5.6 85.4-5.6L85.4-5.6Q90.15-5.6 90.15-11.95L90.15-11.95 90.15-25.35 97.45-25.35ZM110.99-35.35L110.99 0 103.69 0 103.69-35.35 110.99-35.35ZM126.54-5L126.54-5Q128.09-5 128.94-5.95 129.79-6.9 129.79-8.55L129.79-8.55 129.79-10.4 127.44-10.4Q125.59-10.4 124.59-9.6 123.59-8.8 123.59-7.55L123.59-7.55Q123.59-5 126.54-5ZM130.14 0L130.14-3.1Q128.54 0.15 123.84 0.15L123.84 0.15Q120.14 0.15 118.07-1.95 115.99-4.05 115.99-7.2L115.99-7.2Q115.99-10.85 118.67-12.88 121.34-14.9 126.59-14.9L126.59-14.9 129.79-14.9 129.79-16.65Q129.79-19.85 125.54-19.85L125.54-19.85Q121.44-19.85 117.94-17.55L117.94-17.55 117.94-24.1Q120.94-25.8 126.59-25.8L126.59-25.8Q131.99-25.8 134.64-23.48 137.29-21.15 137.29-16.25L137.29-16.25 137.29 0 130.14 0ZM166.29-16.45L166.29 0 158.99 0 158.99-15.1Q158.99-17.35 157.94-18.53 156.89-19.7 154.99-19.7L154.99-19.7Q152.99-19.7 151.66-18.13 150.34-16.55 150.34-13.4L150.34-13.4 150.34 0 143.04 0 143.04-25.35 150.34-25.35 150.34-21.05Q151.29-23.15 153.26-24.38 155.24-25.6 157.99-25.6L157.99-25.6Q161.89-25.6 164.09-23.28 166.29-20.95 166.29-16.45L166.29-16.45ZM191.94-7.55L191.94-1.45Q189.34 0.25 183.99 0.25L183.99 0.25Q177.74 0.25 174.26-3.38 170.79-7 170.79-12.7L170.79-12.7Q170.79-18.75 174.16-22.18 177.54-25.6 182.49-25.6L182.49-25.6Q187.59-25.6 190.54-22.63 193.49-19.65 193.49-13.75L193.49-13.75Q193.49-12.6 193.09-9.8L193.09-9.8 178.19-9.8Q178.94-7.7 180.79-6.55 182.64-5.4 185.24-5.4L185.24-5.4Q189.09-5.4 191.94-7.55L191.94-7.55ZM182.79-20.05L182.79-20.05Q181.04-20.05 179.69-18.78 178.34-17.5 177.89-15L177.89-15 186.69-15 186.69-15.6Q186.34-20.05 182.79-20.05ZM233.88-33.7L233.88-27.5 225.68-27.5 225.68 0 217.93 0 217.93-27.5 209.68-27.5 209.68-33.7 233.88-33.7ZM258.28-7.55L258.28-1.45Q255.68 0.25 250.33 0.25L250.33 0.25Q244.08 0.25 240.6-3.38 237.13-7 237.13-12.7L237.13-12.7Q237.13-18.75 240.5-22.18 243.88-25.6 248.83-25.6L248.83-25.6Q253.93-25.6 256.88-22.63 259.83-19.65 259.83-13.75L259.83-13.75Q259.83-12.6 259.43-9.8L259.43-9.8 244.53-9.8Q245.28-7.7 247.13-6.55 248.98-5.4 251.58-5.4L251.58-5.4Q255.43-5.4 258.28-7.55L258.28-7.55ZM249.13-20.05L249.13-20.05Q247.38-20.05 246.03-18.78 244.68-17.5 244.23-15L244.23-15 253.03-15 253.03-15.6Q252.68-20.05 249.13-20.05ZM283.98-7.3L283.98-1.2Q281.03 0.4 276.88 0.4L276.88 0.4Q271.18 0.4 267.48-3.23 263.78-6.85 263.78-12.6L263.78-12.6Q263.88-18.3 267.48-22.03 271.08-25.75 277.33-25.75L277.33-25.75Q281.18-25.75 283.98-24.3L283.98-24.3 283.98-18.05Q281.33-19.7 278.08-19.7L278.08-19.7Q275.03-19.7 273.13-17.88 271.23-16.05 271.18-12.6L271.18-12.6Q271.38-9.25 273.18-7.4 274.98-5.55 277.93-5.55L277.93-5.55Q281.08-5.55 283.98-7.3L283.98-7.3ZM311.72-16.15L311.72 0 304.42 0 304.42-15Q304.42-17.2 303.32-18.45 302.22-19.7 300.47-19.7L300.47-19.7Q299.72-19.7 299.05-19.48 298.37-19.25 297.57-18.68 296.77-18.1 296.27-16.73 295.77-15.35 295.77-13.4L295.77-13.4 295.77 0 288.47 0 288.47-35.35 295.77-35.35 295.77-21.05Q297.72-25.6 303.37-25.6L303.37-25.6Q307.07-25.6 309.4-23.25 311.72-20.9 311.72-16.15L311.72-16.15Z" opacity="1" transform="matrix(1,0,0,1,0,0)" fill="#0074d9" class="wordmark-text-0" data-fill-palette-color="primary" id="text-0"></path></svg></g></svg></g></svg></g></svg></g><g transform="matrix(1,0,0,1,129.62235131890517,0)"><svg viewBox="0 0 136.27529736218963 120.05947250444622" height="120.05947250444622" width="136.27529736218963"><g><svg xmlns="http://www.w3.org/2000/svg" xmlns:xlink="http://www.w3.org/1999/xlink" version="1.1" x="0" y="0" viewBox="6.3 11.5 87.4 77" style="enable-background:new 0 0 100 100;" xml:space="preserve" height="120.05947250444622" width="136.27529736218963" class="icon-icon-0" data-fill-palette-color="accent" id="icon-0"><path d="M72.3 12.3L71.9 11.5H28.2L6.3 50 28.1 88.5H71.8L93.7 50zM33.3 25.3L9.9 47.7 28.5 14.9zM70.7 14.8L77.1 50.5 36.9 25.8zM35.5 27.3L76.5 52.5 35.5 75.8zM77 54.5L69.8 85.3 37.2 77.2zM33.5 75L9.9 50.5 33.5 27.8zM33.2 77.6L28.6 85.3 11.5 55.1zM35 78.6L66.4 86.5H30.2zM79.3 53.3L90.9 50.8 72.1 84zM90.7 48.9L79.3 51.4 73.4 18.3zM35 24.3L30 13.5H68.2z" fill="#0191da" data-fill-palette-color="accent"></path></svg></g></svg></g><g></g></svg></g><defs></defs></svg><rect width="395.52" height="176.57658444572348" fill="none" stroke="none" visibility="hidden"></rect></g></svg></g></svg>